<svg xmlns="http://www.w3.org/2000/svg" viewBox="0 0 512 512">
  <!-- Red section (top-left) - multiple petals -->
  <ellipse cx="256" cy="100" rx="25" ry="65" fill="#D32F2F" transform="rotate(-45 256 256)"/>
  <ellipse cx="256" cy="110" rx="23" ry="58" fill="#E53935" transform="rotate(-35 256 256)"/>
  <ellipse cx="256" cy="120" rx="21" ry="52" fill="#EF5350" transform="rotate(-25 256 256)"/>
  <ellipse cx="256" cy="130" rx="19" ry="46" fill="#E57373" transform="rotate(-15 256 256)"/>
  <ellipse cx="256" cy="140" rx="17" ry="40" fill="#EF9A9A" transform="rotate(-5 256 256)"/>

  <ellipse cx="256" cy="100" rx="25" ry="65" fill="#C62828" transform="rotate(-55 256 256)"/>
  <ellipse cx="256" cy="110" rx="23" ry="58" fill="#D32F2F" transform="rotate(-65 256 256)"/>
  <ellipse cx="256" cy="120" rx="21" ry="52" fill="#E53935" transform="rotate(-75 256 256)"/>
  <ellipse cx="256" cy="130" rx="19" ry="46" fill="#EF5350" transform="rotate(-85 256 256)"/>

  <!-- Yellow section (top-right) - multiple petals -->
  <ellipse cx="256" cy="100" rx="25" ry="65" fill="#F57F17" transform="rotate(5 256 256)"/>
  <ellipse cx="256" cy="110" rx="23" ry="58" fill="#F9A825" transform="rotate(15 256 256)"/>
  <ellipse cx="256" cy="120" rx="21" ry="52" fill="#FBC02D" transform="rotate(25 256 256)"/>
  <ellipse cx="256" cy="130" rx="19" ry="46" fill="#FFCA28" transform="rotate(35 256 256)"/>
  <ellipse cx="256" cy="140" rx="17" ry="40" fill="#FFD54F" transform="rotate(45 256 256)"/>

  <ellipse cx="256" cy="100" rx="25" ry="65" fill="#FFAB00" transform="rotate(55 256 256)"/>
  <ellipse cx="256" cy="110" rx="23" ry="58" fill="#FFC107" transform="rotate(65 256 256)"/>
  <ellipse cx="256" cy="120" rx="21" ry="52" fill="#FFCA28" transform="rotate(75 256 256)"/>
  <ellipse cx="256" cy="130" rx="19" ry="46" fill="#FFD54F" transform="rotate(85 256 256)"/>

  <!-- Green section (bottom-right) - multiple petals -->
  <ellipse cx="256" cy="100" rx="25" ry="65" fill="#2E7D32" transform="rotate(95 256 256)"/>
  <ellipse cx="256" cy="110" rx="23" ry="58" fill="#388E3C" transform="rotate(105 256 256)"/>
  <ellipse cx="256" cy="120" rx="21" ry="52" fill="#43A047" transform="rotate(115 256 256)"/>
  <ellipse cx="256" cy="130" rx="19" ry="46" fill="#4CAF50" transform="rotate(125 256 256)"/>
  <ellipse cx="256" cy="140" rx="17" ry="40" fill="#66BB6A" transform="rotate(135 256 256)"/>

  <ellipse cx="256" cy="100" rx="25" ry="65" fill="#1B5E20" transform="rotate(145 256 256)"/>
  <ellipse cx="256" cy="110" rx="23" ry="58" fill="#2E7D32" transform="rotate(155 256 256)"/>
  <ellipse cx="256" cy="120" rx="21" ry="52" fill="#388E3C" transform="rotate(165 256 256)"/>
  <ellipse cx="256" cy="130" rx="19" ry="46" fill="#43A047" transform="rotate(175 256 256)"/>

  <!-- Blue section (bottom-left) - multiple petals -->
  <ellipse cx="256" cy="100" rx="25" ry="65" fill="#1565C0" transform="rotate(185 256 256)"/>
  <ellipse cx="256" cy="110" rx="23" ry="58" fill="#1976D2" transform="rotate(195 256 256)"/>
  <ellipse cx="256" cy="120" rx="21" ry="52" fill="#1E88E5" transform="rotate(205 256 256)"/>
  <ellipse cx="256" cy="130" rx="19" ry="46" fill="#2196F3" transform="rotate(215 256 256)"/>
  <ellipse cx="256" cy="140" rx="17" ry="40" fill="#42A5F5" transform="rotate(225 256 256)"/>

  <ellipse cx="256" cy="100" rx="25" ry="65" fill="#0D47A1" transform="rotate(235 256 256)"/>
  <ellipse cx="256" cy="110" rx="23" ry="58" fill="#1565C0" transform="rotate(245 256 256)"/>
  <ellipse cx="256" cy="120" rx="21" ry="52" fill="#1976D2" transform="rotate(255 256 256)"/>
  <ellipse cx="256" cy="130" rx="19" ry="46" fill="#1E88E5" transform="rotate(265 256 256)"/>

  <!-- Back to Red to complete circle -->
  <ellipse cx="256" cy="100" rx="25" ry="65" fill="#B71C1C" transform="rotate(275 256 256)"/>
  <ellipse cx="256" cy="110" rx="23" ry="58" fill="#C62828" transform="rotate(285 256 256)"/>
  <ellipse cx="256" cy="120" rx="21" ry="52" fill="#D32F2F" transform="rotate(295 256 256)"/>
  <ellipse cx="256" cy="130" rx="19" ry="46" fill="#E53935" transform="rotate(305 256 256)"/>
  <ellipse cx="256" cy="140" rx="17" ry="40" fill="#EF5350" transform="rotate(315 256 256)"/>
  <ellipse cx="256" cy="100" rx="25" ry="65" fill="#C62828" transform="rotate(325 256 256)"/>
  <ellipse cx="256" cy="110" rx="23" ry="58" fill="#D32F2F" transform="rotate(335 256 256)"/>
  <ellipse cx="256" cy="120" rx="21" ry="52" fill="#E53935" transform="rotate(345 256 256)"/>
  <ellipse cx="256" cy="130" rx="19" ry="46" fill="#EF5350" transform="rotate(355 256 256)"/>

  <!-- Inner layer petals -->
  <ellipse cx="256" cy="160" rx="15" ry="35" fill="#EF5350" transform="rotate(-40 256 256)"/>
  <ellipse cx="256" cy="160" rx="15" ry="35" fill="#E57373" transform="rotate(-20 256 256)"/>
  <ellipse cx="256" cy="160" rx="15" ry="35" fill="#FFCA28" transform="rotate(0 256 256)"/>
  <ellipse cx="256" cy="160" rx="15" ry="35" fill="#FFD54F" transform="rotate(20 256 256)"/>
  <ellipse cx="256" cy="160" rx="15" ry="35" fill="#FFE082" transform="rotate(40 256 256)"/>
  <ellipse cx="256" cy="160" rx="15" ry="35" fill="#A5D6A7" transform="rotate(60 256 256)"/>
  <ellipse cx="256" cy="160" rx="15" ry="35" fill="#81C784" transform="rotate(80 256 256)"/>
  <ellipse cx="256" cy="160" rx="15" ry="35" fill="#66BB6A" transform="rotate(100 256 256)"/>
  <ellipse cx="256" cy="160" rx="15" ry="35" fill="#4CAF50" transform="rotate(120 256 256)"/>
  <ellipse cx="256" cy="160" rx="15" ry="35" fill="#43A047" transform="rotate(140 256 256)"/>
  <ellipse cx="256" cy="160" rx="15" ry="35" fill="#64B5F6" transform="rotate(160 256 256)"/>
  <ellipse cx="256" cy="160" rx="15" ry="35" fill="#42A5F5" transform="rotate(180 256 256)"/>
  <ellipse cx="256" cy="160" rx="15" ry="35" fill="#2196F3" transform="rotate(200 256 256)"/>
  <ellipse cx="256" cy="160" rx="15" ry="35" fill="#1E88E5" transform="rotate(220 256 256)"/>
  <ellipse cx="256" cy="160" rx="15" ry="35" fill="#1976D2" transform="rotate(240 256 256)"/>
  <ellipse cx="256" cy="160" rx="15" ry="35" fill="#EF9A9A" transform="rotate(260 256 256)"/>
  <ellipse cx="256" cy="160" rx="15" ry="35" fill="#E57373" transform="rotate(280 256 256)"/>
  <ellipse cx="256" cy="160" rx="15" ry="35" fill="#EF5350" transform="rotate(300 256 256)"/>
  <ellipse cx="256" cy="160" rx="15" ry="35" fill="#E53935" transform="rotate(320 256 256)"/>
  <ellipse cx="256" cy="160" rx="15" ry="35" fill="#D32F2F" transform="rotate(340 256 256)"/>

  <!-- Center -->
  <circle cx="256" cy="256" r="30" fill="#4E342E"/>
  <circle cx="256" cy="256" r="22" fill="#5D4037"/>
  <circle cx="256" cy="256" r="14" fill="#6D4C41"/>
  <circle cx="252" cy="252" r="4" fill="#8D6E63"/>
  <circle cx="260" cy="252" r="3" fill="#8D6E63"/>
  <circle cx="256" cy="260" r="3" fill="#8D6E63"/>
</svg>
